<?xml version="1.0" standalone="no"?>
<!DOCTYPE svg PUBLIC "-//W3C//DTD SVG 20010904//EN"
 "http://www.w3.org/TR/2001/REC-SVG-20010904/DTD/svg10.dtd">
<svg version="1.0" xmlns="http://www.w3.org/2000/svg"
 width="161.000000pt" height="300.000000pt" viewBox="0 0 161.000000 300.000000"
 preserveAspectRatio="xMidYMid meet">
<metadata>
Created by potrace 1.15, written by Peter Selinger 2001-2017
</metadata>
<g transform="translate(0.000000,300.000000) scale(0.100000,-0.100000)"
fill="#ea242d" stroke="none">
<path d="M1004 2991 c4 -6 7 -42 7 -81 1 -130 -53 -208 -256 -373 -229 -187
-263 -257 -194 -396 33 -66 225 -277 246 -270 7 2 -14 42 -49 94 -81 123 -108
181 -108 235 1 88 46 154 196 281 148 126 224 250 224 367 0 61 -32 142 -59
150 -8 3 -11 0 -7 -7z"/>
<path d="M1160 2551 c-169 -65 -275 -139 -328 -229 -21 -38 -27 -59 -26 -107
0 -65 21 -114 89 -209 47 -65 45 -128 -7 -183 -39 -42 -10 -36 50 10 74 58
118 134 108 189 -3 20 -27 66 -51 104 -76 115 -79 162 -17 236 32 38 159 133
236 178 31 17 56 36 56 41 0 13 -3 12 -110 -30z"/>
<path fill="#218cc7" d="M1303 1874 c-18 -9 -33 -20 -33 -25 0 -11 7 -11 48 0 64 19 136 -23
148 -85 14 -75 -54 -166 -174 -234 -90 -51 -80 -66 19 -30 179 65 274 164 255
265 -8 43 -50 94 -93 111 -44 19 -131 17 -170 -2z"/>
<path fill="#218cc7" d="M495 1870 c-123 -14 -285 -76 -285 -110 0 -9 6 -22 13 -28 70 -58
568 -68 836 -16 76 14 191 61 191 78 0 5 -14 6 -32 2 -168 -34 -552 -59 -708
-46 -109 8 -140 15 -140 32 0 11 57 36 134 58 33 9 62 22 64 28 2 7 0 11 -5
11 -4 -1 -35 -5 -68 -9z"/>
<path fill="#218cc7" d="M435 1621 c-47 -21 -68 -43 -63 -67 18 -94 407 -123 711 -53 48 12
87 25 87 30 0 5 -4 9 -9 9 -4 0 -25 11 -45 25 -33 22 -42 24 -79 15 -97 -22
-311 -34 -429 -24 -127 11 -160 24 -133 54 31 34 18 38 -40 11z"/>
<path fill="#218cc7" d="M500 1404 c-19 -8 -42 -22 -52 -31 -87 -79 170 -163 415 -136 100 12
267 56 267 72 0 4 -26 20 -59 35 -57 28 -59 28 -132 16 -122 -21 -368 -15
-409 10 -11 7 -12 11 0 24 19 24 10 26 -30 10z"/>
<path fill="#218cc7" d="M223 1250 c-113 -29 -183 -73 -183 -112 0 -44 155 -76 475 -99 321
-23 731 21 890 97 77 36 95 77 45 104 -19 10 -20 9 -14 -14 4 -19 0 -28 -19
-40 -34 -23 -180 -52 -332 -67 -166 -16 -560 -16 -689 0 -108 14 -208 40 -210
56 -2 15 68 46 134 58 64 12 74 21 38 31 -35 9 -56 7 -135 -14z"/>
<path fill="#218cc7" d="M1545 1130 c-12 -20 -103 -59 -182 -79 -281 -73 -667 -90 -1007 -45
-58 8 -57 -9 2 -26 203 -58 746 -55 986 6 124 31 205 79 221 132 6 22 -8 31
-20 12z"/>
<path d="M98 493 c-3 -362 -5 -372 -68 -410 -36 -21 -37 -33 -6 -62 31 -29 56
-24 110 20 74 62 76 71 76 447 l0 332 -54 0 -55 0 -3 -327z"/>
<path d="M415 653 c-11 -2 -44 -11 -72 -20 -49 -15 -52 -17 -47 -42 10 -40 19
-45 68 -32 112 28 176 7 176 -58 l0 -38 -67 -6 c-126 -12 -203 -74 -203 -164
0 -76 34 -118 112 -137 41 -9 105 4 143 30 l34 23 3 -22 c2 -18 11 -23 46 -25
l42 -3 0 206 0 207 -33 33 c-46 46 -126 65 -202 48z m125 -323 c0 -46 -3 -52
-32 -70 -66 -40 -128 -16 -128 51 0 45 37 67 113 68 l47 1 0 -50z"/>
<path d="M1248 642 c-37 -10 -70 -20 -72 -23 -3 -3 -2 -18 3 -35 8 -32 1 -31
132 -18 59 6 69 4 88 -15 13 -13 21 -34 21 -56 0 -35 0 -35 -43 -35 -66 0
-144 -27 -184 -64 -31 -28 -37 -40 -41 -88 -7 -88 27 -134 115 -152 38 -9 107
9 145 36 l28 19 0 -25 c0 -24 3 -26 45 -26 l45 0 0 198 c0 178 -2 200 -20 229
-40 66 -142 87 -262 55z m172 -312 c0 -46 -3 -52 -32 -70 -65 -39 -128 -17
-128 46 0 48 38 74 106 74 l54 0 0 -50z"/>
<path d="M700 640 c0 -7 32 -117 72 -246 l71 -235 66 3 66 3 38 95 c35 85 107
340 107 376 0 10 -15 14 -58 14 l-58 0 -12 -77 c-15 -98 -68 -283 -75 -263 -3
8 -27 87 -54 175 l-48 160 -58 3 c-38 2 -57 -1 -57 -8z"/>
</g>
</svg>
